<svg viewBox="-150 -150 300 300" xmlns="http://www.w3.org/2000/svg">
  <defs>
    <pattern id="puzzleFillSmall" width="24" height="16" patternUnits="userSpaceOnUse">
      <path d="M0.00,0.00 L2.64,0.00 A1.35,1.35 0 0 1 5.36,0.00 L8.00,0.00 L8.00,2.64 A1.35,1.35 0 0 1 8.00,5.36 L8.00,8.00 L5.36,8.00 A1.35,1.35 0 0 0 2.64,8.00 L0.00,8.00 L0.00,5.36 A1.35,1.35 0 0 0 0.00,2.64 Z" fill="#2F80ED"/>
      <path d="M8.00,0.00 L10.64,0.00 A1.35,1.35 0 0 1 13.36,0.00 L16.00,0.00 L16.00,2.64 A1.35,1.35 0 0 1 16.00,5.36 L16.00,8.00 L13.36,8.00 A1.35,1.35 0 0 0 10.64,8.00 L8.00,8.00 L8.00,5.36 A1.35,1.35 0 0 0 8.00,2.64 Z" fill="#10B981"/>
      <path d="M16.00,0.00 L18.64,0.00 A1.35,1.35 0 0 1 21.36,0.00 L24.00,0.00 L24.00,2.64 A1.35,1.35 0 0 1 24.00,5.36 L24.00,8.00 L21.36,8.00 A1.35,1.35 0 0 0 18.64,8.00 L16.00,8.00 L16.00,5.36 A1.35,1.35 0 0 0 16.00,2.64 Z" fill="#F5A623"/>
      <path d="M0.00,8.00 L2.64,8.00 A1.35,1.35 0 0 1 5.36,8.00 L8.00,8.00 L8.00,10.64 A1.35,1.35 0 0 1 8.00,13.36 L8.00,16.00 L5.36,16.00 A1.35,1.35 0 0 0 2.64,16.00 L0.00,16.00 L0.00,13.36 A1.35,1.35 0 0 0 0.00,10.64 Z" fill="#EF4444"/>
      <path d="M8.00,8.00 L10.64,8.00 A1.35,1.35 0 0 1 13.36,8.00 L16.00,8.00 L16.00,10.64 A1.35,1.35 0 0 1 16.00,13.36 L16.00,16.00 L13.36,16.00 A1.35,1.35 0 0 0 10.64,16.00 L8.00,16.00 L8.00,13.36 A1.35,1.35 0 0 0 8.00,10.64 Z" fill="#D946EF"/>
      <path d="M16.00,8.00 L18.64,8.00 A1.35,1.35 0 0 1 21.36,8.00 L24.00,8.00 L24.00,10.64 A1.35,1.35 0 0 1 24.00,13.36 L24.00,16.00 L21.36,16.00 A1.35,1.35 0 0 0 18.64,16.00 L16.00,16.00 L16.00,13.36 A1.35,1.35 0 0 0 16.00,10.64 Z" fill="#6C5CE7"/>
    </pattern>
  </defs>

  <path d="M-56.11,-115.05 A128,128 0 0 1 56.11,-115.05" fill="none" stroke="#2F80ED" stroke-width="7" stroke-linecap="round"/>
  <path d="M71.58,-106.12 A128,128 0 0 1 127.69,-8.93" fill="none" stroke="#10B981" stroke-width="7" stroke-linecap="round"/>
  <path d="M127.69,8.93 A128,128 0 0 1 71.58,106.12" fill="none" stroke="#F5A623" stroke-width="7" stroke-linecap="round"/>
  <path d="M56.11,115.05 A128,128 0 0 1 -56.11,115.05" fill="none" stroke="#EF4444" stroke-width="7" stroke-linecap="round"/>
  <path d="M-71.58,106.12 A128,128 0 0 1 -127.69,8.93" fill="none" stroke="#D946EF" stroke-width="7" stroke-linecap="round"/>
  <path d="M-127.69,-8.93 A128,128 0 0 1 -71.58,-106.12" fill="none" stroke="#6C5CE7" stroke-width="7" stroke-linecap="round"/>

  <path d="M-0.00,-15.00 L-5.38,-20.42 L-10.46,-25.77 L-14.92,-30.96 L-18.52,-35.91 L-21.04,-40.56 L-22.34,-44.84 L-22.34,-48.68 L-21.04,-52.03 L-18.52,-54.85 L-14.92,-57.08 L-10.46,-58.69 L-5.38,-59.67 L0.00,-60.00 L5.38,-59.67 L10.46,-58.69 L14.92,-57.08 L18.52,-54.85 L21.04,-52.03 L22.34,-48.68 L22.34,-44.84 L21.04,-40.56 L18.52,-35.91 L14.92,-30.96 L10.46,-25.77 L5.38,-20.42 L-0.00,-15.00 L3.80,-7.50 L7.60,0.00 L11.40,7.50 L15.20,15.00 L19.00,22.50 L22.80,30.00 L26.60,37.50 L30.40,45.00 L34.20,52.50 L38.00,60.00 M0.00,-15.00 L-3.80,-7.50 L-7.60,0.00 L-11.40,7.50 L-15.20,15.00 L-19.00,22.50 L-22.80,30.00 L-26.60,37.50 L-30.40,45.00 L-34.20,52.50 L-38.00,60.00"
    fill="none" stroke="#241F42" stroke-width="19" stroke-linecap="square" stroke-linejoin="bevel"/>

  <path d="M-0.00,-15.00 L-5.38,-20.42 L-10.46,-25.77 L-14.92,-30.96 L-18.52,-35.91 L-21.04,-40.56 L-22.34,-44.84 L-22.34,-48.68 L-21.04,-52.03 L-18.52,-54.85 L-14.92,-57.08 L-10.46,-58.69 L-5.38,-59.67 L0.00,-60.00 L5.38,-59.67 L10.46,-58.69 L14.92,-57.08 L18.52,-54.85 L21.04,-52.03 L22.34,-48.68 L22.34,-44.84 L21.04,-40.56 L18.52,-35.91 L14.92,-30.96 L10.46,-25.77 L5.38,-20.42 L-0.00,-15.00 L3.80,-7.50 L7.60,0.00 L11.40,7.50 L15.20,15.00 L19.00,22.50 L22.80,30.00 L26.60,37.50 L30.40,45.00 L34.20,52.50 L38.00,60.00 M0.00,-15.00 L-3.80,-7.50 L-7.60,0.00 L-11.40,7.50 L-15.20,15.00 L-19.00,22.50 L-22.80,30.00 L-26.60,37.50 L-30.40,45.00 L-34.20,52.50 L-38.00,60.00"
    fill="none" stroke="url(#puzzleFillSmall)" stroke-width="15" stroke-linecap="square" stroke-linejoin="bevel"/>
</svg>
